<svg width="1207" height="851" xmlns="http://www.w3.org/2000/svg" xmlns:xlink="http://www.w3.org/1999/xlink" overflow="hidden"><defs><clipPath id="clip0"><rect x="1614" y="-141" width="1207" height="851"/></clipPath></defs><g clip-path="url(#clip0)" transform="translate(-1614 141)"><path d="M1627.5 284.5C1544.48 1.84036 1866.7-124.286 2222.5-134.5 2563.35-131.92 2762.1 54.8561 2817.5 284.5 2798.09 534.88 2545.04 737.057 2222.5 703.5 1836.78 672.226 1641.91 522.801 1627.5 284.5Z" fill="#A9D18E" fill-rule="evenodd" fill-opacity="0.639216"/><path d="M1627.5 284.5C1688.52 60.3384 1910.16-168.01 2222.5-134.5 2520.09-139.254 2807.73 62.3028 2817.5 284.5 2809.9 443.321 2521.93 744.085 2222.5 703.5 1949.34 734.571 1636.81 518.149 1627.5 284.5Z" stroke="#2F528F" stroke-width="4.58333" stroke-miterlimit="8" fill="none" fill-rule="evenodd"/><text fill="#FFFFFF" font-family="Fasthand,Fasthand_MSFontService,sans-serif" font-weight="400" font-size="183" transform="matrix(1 0 0 1 1898.62 323)">Brainfood</text></g></svg>